<?xml version="1.0" encoding="UTF-8" standalone="no"?>
<svg xmlns:ffdec="https://www.free-decompiler.com/flash" xmlns:xlink="http://www.w3.org/1999/xlink" ffdec:objectType="shape" height="225.25px" width="281.1px" xmlns="http://www.w3.org/2000/svg">
  <g transform="matrix(1.0, 0.0, 0.0, 1.0, -17.8, -12.0)">
    <path d="M183.9 12.0 L202.2 12.0 202.2 15.35 Q202.2 16.85 200.75 16.85 L194.55 16.85 194.55 17.45 202.7 17.45 202.7 19.5 194.55 19.5 194.55 20.0 201.15 20.0 201.15 29.35 202.9 29.35 202.9 31.7 183.2 31.7 183.2 29.35 184.6 29.35 184.6 20.0 191.55 20.0 191.55 19.5 183.4 19.5 183.4 17.45 191.55 17.45 191.55 16.85 183.9 16.85 183.9 12.0 M194.2 14.95 L194.2 13.9 191.7 13.9 191.7 14.95 194.2 14.95 M189.05 14.95 L189.05 13.9 186.8 13.9 186.8 14.95 189.05 14.95 M187.6 22.6 L198.15 22.6 198.15 22.05 187.6 22.05 187.6 22.6 M199.0 14.95 L199.25 14.8 199.25 13.9 196.85 13.9 196.85 14.95 199.0 14.95 M187.6 24.8 L198.15 24.8 198.15 24.3 187.6 24.3 187.6 24.8 M162.75 12.2 L165.95 12.2 165.95 16.75 162.75 16.75 162.75 12.2 M168.35 12.2 L179.25 12.2 179.25 17.25 Q179.25 17.85 179.85 17.85 L180.9 17.85 180.9 20.55 178.2 20.55 Q176.25 20.55 176.25 18.55 L176.25 14.95 171.25 14.95 171.25 18.55 Q171.25 20.55 169.3 20.55 L166.7 20.55 166.7 18.05 167.8 18.05 Q168.35 18.05 168.35 17.5 L168.35 12.2 M167.2 21.1 L180.2 21.1 180.2 23.85 175.9 27.85 176.75 28.5 Q177.6 29.2 178.65 29.2 L180.7 29.2 180.7 31.85 177.0 31.85 Q176.15 31.85 175.5 31.3 L173.8 29.8 172.05 31.35 Q171.7 31.8 171.0 31.8 L167.65 31.8 167.65 29.2 169.65 29.2 170.15 29.0 171.55 27.8 167.8 24.5 171.85 24.5 173.6 25.95 176.15 23.7 167.2 23.7 167.2 21.1 M161.05 18.05 L165.85 18.05 165.85 28.7 Q165.85 29.2 166.15 29.2 L167.05 29.2 167.05 31.85 164.2 31.85 Q163.0 31.85 163.0 30.65 L163.0 21.05 161.05 21.05 161.05 18.05 M187.6 29.35 L198.15 29.35 198.15 28.85 187.6 28.85 187.6 29.35 M187.6 27.15 L198.15 27.15 198.15 26.55 187.6 26.55 187.6 27.15 M139.4 12.55 L147.9 12.55 147.9 15.45 145.15 23.2 147.0 28.2 Q147.35 29.2 147.8 29.2 L148.3 29.2 148.3 31.8 146.0 31.8 Q145.35 31.8 144.9 30.55 L143.7 27.3 142.35 31.15 Q142.05 31.8 141.35 31.8 L139.2 31.8 139.2 29.2 139.8 29.2 Q140.25 29.2 140.45 28.65 L142.25 23.35 139.65 16.25 142.55 16.25 143.65 19.15 145.05 15.05 139.4 15.05 139.4 12.55 M155.95 12.45 L158.65 12.45 158.65 15.3 Q158.65 16.85 157.1 16.85 L153.4 16.85 154.35 25.5 154.5 25.5 Q155.05 25.5 155.25 24.45 L156.05 17.95 158.8 17.95 157.85 26.0 Q157.55 28.25 156.15 28.25 L154.65 28.25 154.65 28.6 Q154.8 29.3 155.35 29.3 L158.9 29.3 158.9 31.8 153.65 31.8 Q151.9 31.8 151.65 29.75 L151.5 28.25 148.65 28.25 148.65 25.5 151.25 25.5 150.35 16.85 148.5 16.85 148.5 14.25 150.05 14.25 149.85 12.0 152.85 12.0 153.1 14.25 155.6 14.25 Q155.95 14.25 155.95 13.8 L155.95 12.45 M124.75 12.2 L127.6 12.2 127.6 13.9 129.85 13.9 129.85 16.3 125.55 16.3 125.55 18.35 129.4 18.35 129.4 29.9 Q129.4 31.95 127.25 31.95 L126.05 31.95 126.05 29.65 126.5 29.65 Q127.0 29.65 127.0 29.1 L127.0 20.55 125.55 20.55 125.55 29.65 Q125.55 30.65 124.9 31.3 124.4 31.85 123.4 31.85 L121.95 31.85 121.95 29.45 122.45 29.45 Q122.95 29.45 122.95 28.35 L122.95 16.3 122.1 16.3 122.1 13.9 124.75 13.9 124.75 12.2 M131.15 12.1 L133.8 12.1 133.5 13.55 136.95 13.55 136.95 16.0 133.0 16.0 132.95 16.3 Q132.6 17.8 131.3 17.8 L130.2 17.8 130.2 15.45 130.45 15.45 130.7 14.9 131.15 12.1 M117.1 12.35 L119.85 12.35 120.55 14.4 Q120.75 14.95 121.15 14.95 L121.75 14.95 121.75 17.45 119.95 17.45 Q118.75 17.45 118.25 15.6 L117.1 12.35 M117.05 18.2 L119.8 18.2 120.4 20.25 121.0 20.8 121.85 20.8 121.85 23.3 119.8 23.3 Q118.6 23.3 118.05 21.5 L117.05 18.2 M130.0 18.45 L136.8 18.45 136.8 20.25 135.6 23.1 137.15 23.1 137.15 25.6 135.15 25.6 135.15 30.15 Q135.15 31.85 133.7 31.85 L130.7 31.85 130.7 29.55 132.15 29.55 Q132.6 29.55 132.6 28.7 L132.6 25.6 129.85 25.6 129.85 23.1 132.85 23.1 133.6 20.85 130.0 20.85 130.0 18.45 M119.45 24.4 L122.2 24.4 121.0 29.8 Q120.55 31.7 118.75 31.7 L117.1 31.7 117.1 29.2 117.8 29.2 Q118.2 29.2 118.5 28.4 L119.45 24.4" fill="#00ffff" fill-rule="evenodd" stroke="none"/>
    <path d="M70.1 49.85 L70.1 49.1 68.5 49.1 68.5 49.85 70.1 49.85 M73.9 49.85 L73.9 49.1 72.05 49.1 72.05 49.85 73.9 49.85 M77.35 49.85 L77.55 49.75 77.55 49.1 75.8 49.1 75.8 49.85 77.35 49.85 M66.4 47.75 L79.7 47.75 79.7 50.15 Q79.7 51.25 78.65 51.25 L74.1 51.25 74.1 51.7 80.05 51.7 80.05 53.2 74.1 53.2 74.1 53.55 78.95 53.55 78.95 60.35 80.2 60.35 80.2 62.05 65.9 62.05 65.9 60.35 66.9 60.35 66.9 53.55 71.95 53.55 71.95 53.2 66.0 53.2 66.0 51.7 71.95 51.7 71.95 51.25 66.4 51.25 66.4 47.75 M55.05 47.85 L63.0 47.85 63.0 51.55 Q63.0 52.0 63.45 52.0 L64.2 52.0 64.2 53.95 62.25 53.95 Q60.8 53.95 60.8 52.5 L60.8 49.85 57.2 49.85 57.2 52.5 Q57.2 53.95 55.75 53.95 L53.9 53.95 53.9 52.15 54.7 52.15 Q55.05 52.15 55.05 51.75 L55.05 47.85 M51.0 47.85 L53.3 47.85 53.3 51.2 51.0 51.2 51.0 47.85 M32.1 47.95 L32.1 49.85 17.9 49.85 17.9 47.95 32.1 47.95 M48.1 47.95 L48.1 49.8 42.45 49.8 42.0 51.2 47.7 51.2 47.7 60.7 Q47.7 62.05 46.0 62.05 L34.2 62.05 34.2 51.2 39.35 51.2 39.85 49.8 33.9 49.8 33.9 47.95 48.1 47.95 M39.8 54.25 L41.95 54.25 41.95 53.05 39.8 53.05 39.8 54.25 M37.7 60.15 L37.7 53.05 36.4 53.05 36.4 60.15 37.7 60.15 M41.95 60.15 L41.95 59.05 39.8 59.05 39.8 60.15 41.95 60.15 M39.8 57.25 L41.95 57.25 41.95 56.05 39.8 56.05 39.8 57.25 M18.25 50.7 L20.45 50.7 20.45 60.25 29.15 60.25 29.5 59.95 29.5 50.7 31.7 50.7 31.7 60.85 Q31.7 62.15 30.2 62.15 L18.25 62.15 18.25 50.7 M25.9 52.5 L25.9 54.15 26.75 54.15 26.75 52.5 25.9 52.5 M23.15 54.15 L24.05 54.15 24.05 52.5 23.15 52.5 23.15 54.15 M24.05 57.75 L24.05 55.95 23.15 55.95 23.15 57.75 24.05 57.75 M26.25 57.75 Q26.75 57.75 26.75 57.3 L26.75 55.95 25.9 55.95 25.9 57.75 26.25 57.75 M21.05 50.7 L28.8 50.7 28.8 58.25 Q28.8 59.55 27.3 59.55 L21.05 59.55 21.05 50.7 M69.05 55.45 L76.75 55.45 76.75 55.05 69.05 55.05 69.05 55.45 M69.05 57.05 L76.75 57.05 76.75 56.7 69.05 56.7 69.05 57.05 M69.05 58.75 L76.75 58.75 76.75 58.3 69.05 58.3 69.05 58.75 M69.05 60.35 L76.75 60.35 76.75 60.0 69.05 60.0 69.05 60.35 M54.25 54.35 L63.7 54.35 63.7 56.35 60.55 59.25 61.2 59.75 Q61.8 60.25 62.55 60.25 L64.05 60.25 64.05 62.15 61.35 62.15 Q60.75 62.15 60.3 61.75 L59.05 60.65 57.8 61.8 Q57.5 62.15 57.0 62.15 L54.55 62.15 54.55 60.25 56.0 60.25 56.4 60.1 57.4 59.2 54.7 56.8 57.65 56.8 58.9 57.85 60.75 56.25 54.25 56.25 54.25 54.35 M49.75 52.15 L53.25 52.15 53.25 59.85 Q53.25 60.25 53.45 60.25 L54.1 60.25 54.1 62.15 52.05 62.15 Q51.2 62.15 51.2 61.3 L51.2 54.3 49.75 54.3 49.75 52.15 M44.9 60.15 Q45.45 60.15 45.45 59.75 L45.45 53.05 44.05 53.05 44.05 60.15 44.9 60.15" fill="#ffff66" fill-rule="evenodd" stroke="none"/>
    <path d="M31.75 83.8 L31.75 85.8 30.2 85.8 30.2 92.25 31.95 92.25 31.95 94.25 18.0 94.25 18.0 92.25 19.75 92.25 19.75 85.8 18.2 85.8 18.2 83.8 19.75 83.8 19.75 82.7 21.95 82.7 21.95 83.8 28.0 83.8 28.0 82.7 30.2 82.7 30.2 83.8 31.75 83.8 M20.5 94.55 L23.2 94.55 21.9 96.55 Q21.5 97.25 20.5 97.25 L18.0 97.25 18.0 95.5 19.5 95.5 20.0 95.3 20.5 94.55 M47.75 84.8 L47.75 92.3 Q47.75 94.2 45.7 94.2 L44.8 94.2 44.8 92.3 45.3 92.3 Q45.5 92.3 45.5 91.95 L45.5 87.4 44.0 87.8 44.0 93.65 41.9 93.65 41.9 88.35 40.4 88.7 40.4 94.55 Q40.4 94.95 40.75 94.95 L48.25 94.95 48.25 96.85 39.5 96.85 Q38.2 96.85 38.2 95.75 L38.2 89.25 37.05 89.55 37.05 87.25 38.2 87.0 38.2 84.5 40.4 84.5 40.4 86.5 41.9 86.15 41.9 82.7 44.0 82.7 44.0 85.65 47.75 84.8 M35.45 82.95 L37.7 82.95 36.55 86.6 36.55 97.15 34.5 97.15 34.5 88.7 33.7 88.7 33.7 86.55 34.1 86.55 Q34.4 86.55 34.55 85.95 L35.45 82.95 M21.95 86.75 L28.0 86.75 28.0 85.8 21.95 85.8 21.95 86.75 M21.95 92.25 L28.0 92.25 28.0 91.3 21.95 91.3 21.95 92.25 M21.95 89.5 L28.0 89.5 28.0 88.55 21.95 88.55 21.95 89.5 M26.05 94.55 L28.75 94.55 29.2 95.3 Q29.3 95.5 29.7 95.5 L31.75 95.5 31.75 97.25 28.3 97.25 Q27.65 97.25 27.2 96.55 L26.05 94.55 M63.7 83.05 L63.7 84.85 56.7 84.85 56.7 83.05 63.7 83.05 M55.65 83.35 L55.65 85.15 53.8 85.15 53.8 88.7 55.3 88.7 55.3 90.45 53.8 90.45 53.8 95.05 55.65 95.05 55.65 95.45 56.4 95.45 Q56.7 95.45 56.9 94.6 L57.65 90.5 59.75 90.5 58.8 95.5 Q58.45 97.25 57.05 97.25 L55.5 97.25 55.5 96.8 49.8 96.8 49.8 95.05 51.75 95.05 51.75 90.45 50.05 90.45 50.05 88.7 51.75 88.7 51.75 85.15 49.8 85.15 49.8 83.35 55.65 83.35 M64.4 87.8 L64.4 89.65 62.95 89.65 62.95 94.85 Q62.95 95.3 63.45 95.3 L64.25 95.3 64.25 97.15 62.95 97.15 Q60.8 97.15 60.8 95.3 L60.8 89.65 55.8 89.65 55.8 87.8 64.4 87.8 M71.7 82.8 L74.4 82.8 74.4 83.65 80.1 83.65 80.1 85.95 77.95 85.95 77.95 85.35 68.05 85.35 68.05 85.95 65.9 85.95 65.9 83.65 71.7 83.65 71.7 82.8 M79.65 86.3 L79.65 88.0 71.1 88.0 70.8 88.55 75.25 88.55 75.25 95.65 Q75.25 97.15 73.25 97.15 L71.25 97.15 71.25 95.45 72.5 95.45 Q73.0 95.45 73.0 95.05 L73.0 90.25 69.7 90.25 Q69.2 90.7 68.4 90.7 L66.05 90.7 66.05 89.0 67.45 89.0 Q68.0 89.0 68.3 88.55 L68.65 88.0 66.2 88.0 66.2 86.3 79.65 86.3 M69.65 90.75 L72.45 90.75 69.5 93.3 Q69.1 93.65 68.65 93.65 L66.05 93.65 66.05 91.85 68.05 91.85 68.35 91.75 69.65 90.75 M69.95 93.65 L72.75 93.65 69.45 96.4 68.5 96.75 66.05 96.75 66.05 95.0 67.95 95.0 68.3 94.85 69.95 93.65 M77.65 88.7 L80.0 88.7 78.95 90.45 Q78.6 91.05 77.8 91.05 L75.8 91.05 75.8 89.45 76.95 89.45 77.25 89.25 77.65 88.7 M75.9 91.65 L78.2 91.65 78.9 94.4 Q79.0 94.95 79.3 94.95 L80.1 94.95 80.1 96.8 78.45 96.8 Q77.3 96.8 76.95 95.55 L75.9 91.65" fill="#ffff66" fill-rule="evenodd" stroke="none"/>
    <path d="M55.05 117.85 L63.0 117.85 63.0 121.55 Q63.0 122.0 63.45 122.0 L64.2 122.0 64.2 123.95 62.25 123.95 Q60.8 123.95 60.8 122.5 L60.8 119.85 57.2 119.85 57.2 122.5 Q57.2 123.95 55.75 123.95 L53.9 123.95 53.9 122.15 54.7 122.15 Q55.05 122.15 55.05 121.75 L55.05 117.85 M70.1 119.85 L70.1 119.1 68.5 119.1 68.5 119.85 70.1 119.85 M66.4 117.75 L79.7 117.75 79.7 120.15 Q79.7 121.25 78.65 121.25 L74.1 121.25 74.1 121.7 80.05 121.7 80.05 123.2 74.1 123.2 74.1 123.55 78.95 123.55 78.95 130.35 80.2 130.35 80.2 132.05 65.9 132.05 65.9 130.35 66.9 130.35 66.9 123.55 71.95 123.55 71.95 123.2 66.0 123.2 66.0 121.7 71.95 121.7 71.95 121.25 66.4 121.25 66.4 117.75 M77.35 119.85 L77.55 119.75 77.55 119.1 75.8 119.1 75.8 119.85 77.35 119.85 M73.9 119.85 L73.9 119.1 72.05 119.1 72.05 119.85 73.9 119.85 M42.7 117.85 L44.95 117.85 44.5 119.05 48.25 119.05 48.25 120.8 43.9 120.8 43.75 121.15 Q43.4 122.25 42.5 122.25 L41.3 122.25 41.3 120.45 41.65 120.45 Q42.0 120.45 42.15 119.85 L42.7 117.85 M37.45 121.05 L39.65 121.05 39.85 121.65 40.1 121.8 41.05 121.8 41.05 123.6 39.05 123.6 Q38.6 123.6 38.25 123.0 L37.45 121.05 M45.65 121.75 L47.8 121.75 45.85 127.3 47.1 129.65 Q47.35 130.15 47.7 130.15 L48.1 130.15 48.1 132.05 46.4 132.05 Q45.85 132.05 45.5 131.35 L44.85 130.1 44.55 130.95 Q44.15 132.05 43.25 132.05 L41.55 132.05 41.55 130.25 42.1 130.25 42.55 129.9 43.5 127.4 41.25 123.05 43.55 123.05 44.5 124.75 45.65 121.75 M36.3 117.85 L38.65 117.85 38.65 118.85 41.15 118.85 41.15 120.8 33.8 120.8 33.8 118.85 36.3 118.85 36.3 117.85 M51.0 117.85 L53.3 117.85 53.3 121.2 51.0 121.2 51.0 117.85 M49.75 122.15 L53.25 122.15 53.25 129.85 Q53.25 130.25 53.45 130.25 L54.1 130.25 54.1 132.15 52.05 132.15 Q51.2 132.15 51.2 131.3 L51.2 124.3 49.75 124.3 49.75 122.15 M54.25 124.35 L63.7 124.35 63.7 126.35 60.55 129.25 61.2 129.75 Q61.8 130.25 62.55 130.25 L64.05 130.25 64.05 132.15 61.35 132.15 Q60.75 132.15 60.3 131.75 L59.05 130.65 57.8 131.8 Q57.5 132.15 57.0 132.15 L54.55 132.15 54.55 130.25 56.0 130.25 56.4 130.1 57.4 129.2 54.7 126.8 57.65 126.8 58.9 127.85 60.75 126.25 54.25 126.25 54.25 124.35 M38.5 124.0 L40.8 124.0 38.75 127.9 40.0 129.85 40.7 130.35 41.05 130.35 41.05 132.15 39.45 132.15 Q38.9 132.15 38.5 131.5 L37.65 130.1 37.2 130.9 Q36.65 132.15 35.35 132.15 L33.75 132.15 33.75 130.25 34.2 130.25 Q35.0 130.25 35.4 129.4 L36.3 127.85 33.9 123.95 36.25 123.95 37.45 125.8 38.5 124.0 M69.05 130.35 L76.75 130.35 76.75 130.0 69.05 130.0 69.05 130.35 M69.05 125.45 L76.75 125.45 76.75 125.05 69.05 125.05 69.05 125.45 M69.05 127.05 L76.75 127.05 76.75 126.7 69.05 126.7 69.05 127.05 M69.05 128.75 L76.75 128.75 76.75 128.3 69.05 128.3 69.05 128.75 M23.65 117.55 L26.2 117.55 26.2 118.35 32.0 118.35 32.0 120.15 18.0 120.15 18.0 118.35 23.65 118.35 23.65 117.55 M19.05 120.75 L21.55 120.75 22.7 122.35 27.25 122.35 28.25 120.75 30.75 120.75 29.7 122.35 32.2 122.35 32.2 124.25 17.8 124.25 17.8 122.35 20.2 122.35 19.05 120.75 M35.15 121.0 L37.3 121.0 36.35 122.95 Q36.05 123.6 35.3 123.6 L33.75 123.6 33.75 121.8 34.5 121.8 34.8 121.6 35.15 121.0 M18.2 125.0 L31.8 125.0 31.8 130.75 Q31.8 132.25 29.7 132.25 L18.2 132.25 18.2 125.0 M20.7 127.7 L29.3 127.7 29.3 126.8 20.7 126.8 20.7 127.7 M20.7 130.45 L28.0 130.45 29.3 130.3 29.3 129.5 20.7 129.5 20.7 130.45" fill="#ffff66" fill-rule="evenodd" stroke="none"/>
    <path d="M35.15 152.3 L37.55 152.3 37.9 153.7 Q38.0 154.25 38.4 154.25 L41.65 154.25 41.65 156.25 37.2 156.25 Q36.1 156.25 35.8 155.15 L35.15 152.3 M20.2 151.7 L22.2 151.7 22.2 153.8 24.8 153.8 24.8 154.3 25.95 154.3 25.55 151.7 27.75 151.7 28.15 154.3 29.9 154.3 Q30.1 154.3 30.1 153.95 L30.1 152.45 32.05 152.45 32.05 155.2 Q32.05 156.4 30.95 156.4 L28.45 156.4 29.15 161.3 29.2 161.15 29.95 157.15 32.1 157.15 31.3 162.3 Q31.05 163.75 29.8 163.75 L29.55 163.75 Q29.65 164.2 30.0 164.2 L32.2 164.2 32.2 166.1 28.75 166.1 Q27.5 166.1 27.3 164.5 L27.2 163.75 24.95 163.75 24.95 161.8 26.95 161.8 26.2 156.4 24.5 156.4 24.5 155.8 22.2 155.8 22.2 158.0 24.5 158.0 24.5 164.8 Q24.5 166.2 23.05 166.2 L17.95 166.2 17.95 158.0 20.2 158.0 20.2 151.7 M34.7 157.05 L37.15 157.05 37.5 158.45 Q37.6 159.0 38.0 159.0 L41.8 159.0 41.8 161.0 36.8 161.0 Q35.7 161.0 35.45 159.9 L34.7 157.05 M20.05 160.0 L20.05 164.2 22.0 164.2 Q22.4 164.2 22.4 163.8 L22.4 160.0 20.05 160.0 M48.25 161.7 L48.25 163.7 45.7 163.85 45.7 166.1 43.45 166.1 43.45 164.05 33.8 164.7 33.8 162.7 43.45 162.05 43.45 151.75 45.7 151.75 45.7 161.85 48.25 161.7 M63.75 158.95 L63.8 161.7 63.85 164.45 63.75 164.65 63.55 164.7 62.2 164.75 60.75 164.7 60.5 164.45 60.6 163.1 60.75 158.95 60.7 156.4 60.6 153.9 Q60.6 153.75 60.8 153.75 L61.55 153.75 62.25 153.8 63.0 153.75 63.7 153.75 Q63.9 153.75 63.9 153.9 L63.85 156.4 63.75 158.95 M59.05 160.85 Q59.05 162.85 58.55 163.6 57.7 164.9 54.2 164.9 L51.75 164.65 Q50.4 164.3 50.0 163.2 L49.8 161.25 49.85 160.3 49.85 159.35 49.75 156.65 49.7 153.95 49.85 153.75 51.3 153.8 52.75 153.8 52.9 154.0 52.85 157.1 52.8 160.15 Q52.8 161.4 53.05 161.85 53.4 162.4 54.5 162.4 56.1 162.4 56.1 160.85 L56.05 157.45 56.0 154.05 Q56.0 153.8 56.15 153.8 L57.55 153.8 58.95 153.75 Q59.2 153.75 59.2 153.95 L59.1 156.65 59.05 159.35 59.05 160.1 59.05 160.85" fill="#ffff66" fill-rule="evenodd" stroke="none"/>
    <path d="M18.55 192.3 L20.8 192.3 20.9 192.45 Q21.0 192.8 21.35 192.8 L22.25 192.8 22.25 194.25 20.3 194.25 Q19.25 194.25 19.0 193.45 L18.55 192.3 M24.75 187.85 L24.75 189.5 23.7 189.5 23.9 190.05 Q24.05 190.45 24.5 190.45 L24.75 190.45 24.75 191.8 23.35 191.8 Q22.75 191.8 22.25 191.0 L21.55 189.5 21.25 189.85 20.5 191.35 Q20.2 192.05 19.25 192.05 L18.0 192.05 18.0 190.55 Q18.7 190.55 18.95 189.95 L19.8 188.2 Q19.9 187.85 20.4 187.85 L24.75 187.85 M32.1 187.85 L32.1 189.5 30.85 189.5 31.1 190.05 Q31.3 190.45 31.9 190.45 L32.1 190.45 32.1 191.8 30.75 191.8 Q30.0 191.8 29.5 191.0 L28.65 189.5 28.55 189.5 28.2 189.8 27.5 191.05 Q27.2 191.7 26.3 191.7 L25.15 191.7 25.15 190.15 Q25.75 190.15 26.0 189.65 L26.75 188.15 Q26.9 187.85 27.3 187.85 L32.1 187.85 M23.35 197.25 L26.7 197.25 26.7 196.45 23.35 196.45 23.35 197.25 M22.75 192.25 L31.8 192.25 31.8 201.2 Q31.8 202.15 30.55 202.15 L28.45 202.15 28.45 201.0 Q28.05 201.4 27.25 201.4 L21.35 201.4 21.35 194.75 28.75 194.75 28.75 200.15 28.7 200.5 29.35 200.5 29.7 200.15 29.7 194.0 22.75 194.0 22.75 192.25 M34.1 188.05 L36.45 188.05 36.9 189.8 Q37.0 190.3 37.35 190.3 L37.9 190.3 37.9 192.15 36.25 192.15 Q35.2 192.15 34.95 191.1 L34.1 188.05 M48.05 188.85 L48.05 190.7 44.2 190.7 44.2 192.7 47.75 192.7 47.75 194.55 38.5 194.55 38.5 192.7 41.95 192.7 41.95 190.7 38.25 190.7 38.25 188.85 41.95 188.85 41.95 187.8 44.2 187.8 44.2 188.85 48.05 188.85 M34.05 192.55 L36.4 192.55 36.8 194.35 Q36.9 194.85 37.3 194.85 L37.9 194.85 37.9 196.7 36.2 196.7 Q35.15 196.7 34.9 195.7 L34.05 192.55 M35.45 197.45 L37.75 197.45 36.9 200.8 Q36.55 202.0 35.25 202.0 L34.0 202.0 34.0 200.15 34.5 200.15 34.9 199.75 35.45 197.45 M18.45 194.8 L20.45 194.8 20.45 202.15 18.45 202.15 18.45 194.8 M52.0 191.7 L52.0 191.05 49.95 191.05 49.95 189.25 52.0 189.25 52.0 187.85 53.7 187.85 53.7 189.25 55.7 189.25 55.7 191.05 53.7 191.05 53.7 191.7 55.25 191.7 55.65 199.1 Q55.7 199.6 55.95 199.6 L56.0 199.6 56.0 201.3 55.05 201.3 Q54.2 201.3 54.05 199.95 L53.7 191.7 53.7 202.15 52.0 202.15 52.0 191.7 51.6 199.75 51.2 200.9 Q50.8 201.3 50.25 201.3 L49.65 201.3 49.65 199.6 49.7 199.6 Q50.05 199.6 50.05 199.0 L50.45 191.7 52.0 191.7 M44.75 200.15 Q45.2 200.15 45.2 199.5 L45.2 197.4 41.05 197.4 41.05 200.15 44.75 200.15 M64.2 188.5 L64.2 190.25 63.35 190.25 63.35 190.8 61.25 190.8 61.25 190.25 59.15 190.25 59.15 190.8 57.05 190.8 57.05 190.25 56.0 190.25 56.0 188.5 57.05 188.5 57.05 187.95 59.15 187.95 59.15 188.5 61.25 188.5 61.25 187.95 63.35 187.95 63.35 188.5 64.2 188.5 M58.5 193.25 L61.8 193.25 61.8 192.75 58.5 192.75 58.5 193.25 M61.35 195.25 Q61.8 195.25 61.8 194.75 L61.8 194.7 58.5 194.7 58.5 195.25 61.35 195.25 M56.3 191.2 L64.0 191.2 64.0 195.5 Q64.0 196.8 62.45 196.8 L61.15 196.8 61.15 197.55 64.2 197.55 64.2 199.4 61.65 199.4 62.3 200.2 62.8 200.35 64.2 200.35 64.2 202.15 62.2 202.15 Q61.3 202.15 60.95 201.65 L60.0 200.3 59.0 201.65 Q58.7 202.15 58.0 202.15 L56.3 202.15 56.3 200.35 57.3 200.35 57.8 200.2 58.35 199.4 56.1 199.4 56.1 197.55 58.9 197.55 58.9 196.8 56.3 196.8 56.3 191.2 M77.75 188.05 L79.95 188.05 79.95 189.45 Q79.95 191.3 77.9 191.3 L76.6 191.3 78.0 199.6 Q78.1 200.15 78.45 200.15 L80.2 200.15 80.2 202.15 77.25 202.15 Q76.05 202.15 75.9 200.5 L74.45 191.3 65.8 191.3 65.8 189.3 74.15 189.3 73.9 187.6 76.0 187.6 76.3 189.3 77.35 189.3 77.75 188.95 77.75 188.05 M74.05 192.7 L74.05 194.65 71.45 194.65 71.45 199.55 74.8 199.55 74.8 201.5 66.05 201.5 66.05 199.55 69.2 199.55 69.2 194.65 66.4 194.65 66.4 192.7 74.05 192.7 M38.8 195.5 L47.45 195.5 47.45 200.45 Q47.45 202.0 45.8 202.0 L38.8 202.0 38.8 195.5 M26.2 199.7 Q26.7 199.7 26.7 199.3 L26.7 198.85 23.35 198.85 23.35 199.7 26.2 199.7" fill="#ffff66" fill-rule="evenodd" stroke="none"/>
    <path d="M57.2 223.0 L59.3 223.0 59.3 227.45 59.7 227.75 60.8 227.75 60.8 229.65 58.45 229.65 Q57.2 229.65 57.2 228.5 L57.2 223.0 M50.7 223.0 L52.75 223.0 52.75 232.25 Q52.75 233.05 52.25 233.6 51.85 234.05 51.05 234.05 L49.8 234.05 49.8 232.1 50.3 232.1 Q50.7 232.1 50.7 231.15 L50.7 223.0 M53.8 222.85 L56.05 222.85 56.05 232.05 57.9 230.3 61.2 230.3 56.05 234.9 56.05 235.0 56.5 235.3 61.0 235.3 61.0 237.15 55.15 237.15 Q54.35 237.15 54.05 236.75 53.55 237.15 53.05 237.15 L50.55 237.15 50.55 235.05 52.45 235.05 53.6 234.4 53.8 234.2 53.8 222.85 M40.9 224.0 L42.35 224.0 42.45 222.8 44.65 222.8 44.55 224.0 47.9 224.0 47.9 235.35 Q47.9 237.0 46.0 237.0 L44.3 237.0 44.3 235.15 45.3 235.15 Q45.75 235.15 45.75 234.8 L45.75 225.95 44.4 225.95 43.8 234.75 Q43.65 237.15 42.8 237.15 L40.75 237.15 40.75 235.35 41.35 235.35 Q41.7 235.35 41.75 233.7 L42.25 225.95 40.9 225.95 40.9 224.0 M40.5 227.5 L40.5 229.55 37.4 229.55 36.1 235.15 37.8 235.15 Q38.2 235.15 38.2 234.8 L38.2 233.0 40.2 233.0 40.2 235.55 39.75 236.45 Q39.25 237.0 38.5 237.0 L33.95 237.0 33.95 235.65 34.1 234.6 35.2 229.55 33.8 229.55 33.8 227.5 40.5 227.5 M76.25 222.8 L80.05 222.8 74.95 225.95 75.65 226.35 Q76.7 226.95 78.0 226.95 L79.95 226.95 79.95 229.05 76.5 229.05 Q75.5 229.05 74.75 228.55 L72.75 227.25 70.75 228.45 Q69.95 229.05 69.05 229.05 L66.0 229.05 66.0 226.95 68.45 226.95 Q69.25 226.95 70.1 226.4 L70.8 225.95 66.0 222.8 69.65 222.8 72.9 224.75 76.25 222.8 M79.95 230.05 L79.95 232.05 74.05 232.05 74.05 235.3 Q74.05 236.15 73.5 236.75 73.1 237.25 72.25 237.25 L70.3 237.25 70.3 235.35 71.45 235.35 Q71.9 235.35 71.9 234.5 L71.9 232.05 66.0 232.05 66.0 230.05 71.9 230.05 71.9 228.6 74.05 228.6 74.05 230.05 79.95 230.05 M74.8 232.7 L77.25 232.7 78.0 234.6 Q78.25 235.15 78.95 235.15 L79.9 235.15 79.9 237.05 77.75 237.05 Q76.9 237.05 76.3 235.95 L74.8 232.7 M61.35 223.0 L63.75 223.0 63.75 234.8 Q63.75 235.15 64.2 235.15 L64.2 237.0 62.75 237.0 Q61.35 237.0 61.35 235.85 L61.35 223.0 M68.55 232.7 L71.0 232.7 69.55 235.9 Q69.1 237.0 68.0 237.0 L65.95 237.0 65.95 235.15 67.05 235.15 Q67.55 235.15 67.8 234.6 L68.55 232.7 M22.5 222.55 L25.25 222.55 24.5 224.05 31.95 224.05 31.95 235.55 Q31.95 237.05 30.25 237.05 L18.0 237.05 18.0 224.05 21.75 224.05 22.5 222.55 M40.2 223.55 L40.2 225.65 34.1 225.65 34.1 223.55 40.2 223.55 M20.25 227.8 L29.7 227.8 29.7 226.1 20.25 226.1 20.25 227.8 M29.15 235.0 Q29.7 235.0 29.7 234.5 L29.7 233.35 20.25 233.35 20.25 235.0 29.15 235.0 M20.25 231.45 L29.7 231.45 29.7 229.75 20.25 229.75 20.25 231.45" fill="#ffff66" fill-rule="evenodd" stroke="none"/>
    <path d="M135.25 48.05 L137.1 48.05 137.1 50.15 Q137.1 51.3 136.0 51.3 L134.75 51.3 134.75 60.05 Q134.75 60.35 135.1 60.35 L137.25 60.35 137.25 62.15 133.9 62.15 Q132.7 62.15 132.7 61.1 L132.7 51.3 131.25 51.3 130.5 59.85 Q130.3 62.25 129.25 62.25 L126.7 62.25 126.7 60.45 127.8 60.45 Q128.35 60.45 128.4 58.75 L129.15 51.3 126.7 51.3 126.7 49.4 129.35 49.4 129.5 47.8 131.55 47.8 131.4 49.4 135.0 49.4 135.25 49.0 135.25 48.05 M124.45 47.8 L126.65 47.8 126.0 50.35 126.0 62.25 123.95 62.25 123.95 52.65 122.9 52.65 122.9 50.7 123.3 50.7 123.8 50.2 124.45 47.8 M153.0 47.55 L153.0 48.65 Q153.0 50.25 151.25 50.25 L141.25 50.25 141.25 60.7 Q141.25 62.25 139.65 62.25 L138.7 62.25 138.7 60.45 138.95 60.45 139.1 60.25 139.1 48.25 150.45 48.25 Q150.95 48.25 150.95 47.55 L153.0 47.55 M152.7 51.45 L152.7 53.3 148.15 53.3 148.15 54.15 152.35 54.15 152.35 59.6 150.2 59.6 150.2 56.05 144.2 56.05 144.2 59.6 142.0 59.6 142.0 54.15 146.0 54.15 146.0 53.3 141.55 53.3 141.55 51.45 146.0 51.45 146.0 50.55 148.15 50.55 148.15 51.45 152.7 51.45 M146.0 56.55 L148.2 56.55 148.2 58.65 148.25 58.8 149.45 60.0 150.0 60.15 152.7 60.15 152.7 62.05 149.25 62.05 Q148.4 62.05 148.0 61.7 L147.05 60.7 146.05 61.7 145.0 62.05 141.75 62.05 141.75 60.15 144.2 60.15 144.7 60.0 145.9 58.8 146.0 58.65 146.0 56.55" fill="#00ffff" fill-rule="evenodd" stroke="none"/>
    <path d="M204.45 47.85 L206.75 47.85 206.75 50.75 204.45 50.75 204.45 47.85 M207.95 47.8 L216.95 47.8 216.95 49.8 215.6 50.85 217.7 50.85 217.7 57.85 Q217.7 58.7 217.15 59.25 216.75 59.75 215.95 59.75 L214.5 59.75 214.5 58.15 215.2 58.15 Q215.55 58.15 215.55 57.5 L213.65 57.5 213.65 59.6 211.5 59.6 211.5 57.5 209.65 57.5 209.65 59.75 207.5 59.75 207.5 50.85 209.4 50.85 208.8 50.0 211.2 50.0 211.75 50.85 212.65 50.85 214.25 49.5 207.95 49.5 207.95 47.8 M189.9 47.85 L192.2 47.85 192.4 48.7 197.3 48.7 197.55 47.85 199.9 47.85 199.6 48.7 201.95 48.7 201.95 50.5 197.8 50.5 197.8 53.45 202.2 53.45 202.2 55.25 187.8 55.25 187.8 53.45 192.3 53.45 192.3 50.5 188.05 50.5 188.05 48.7 190.1 48.7 189.9 47.85 M199.65 50.8 L201.75 50.8 200.85 52.5 Q200.55 53.05 199.9 53.05 L198.45 53.05 198.45 51.6 199.05 51.6 199.35 51.45 199.65 50.8 M194.4 53.45 L195.75 53.45 195.75 50.5 194.4 50.5 194.4 53.45 M190.8 58.15 L199.15 58.15 199.15 57.5 190.8 57.5 190.8 58.15 M198.75 60.45 Q199.15 60.45 199.15 59.85 L199.15 59.75 190.8 59.75 190.8 60.45 198.75 60.45 M188.8 55.8 L201.15 55.8 201.15 60.7 Q201.15 62.15 199.7 62.15 L188.8 62.15 188.8 55.8 M188.2 50.8 L190.3 50.8 190.55 51.45 Q190.6 51.6 190.8 51.6 L191.75 51.6 191.75 53.05 189.75 53.05 Q189.3 53.05 189.0 52.5 L188.2 50.8 M213.65 52.5 L213.65 53.45 215.55 53.45 215.55 52.5 213.65 52.5 M213.65 55.0 L213.65 55.95 215.55 55.95 215.55 55.0 213.65 55.0 M209.65 53.45 L211.5 53.45 211.5 52.5 209.65 52.5 209.65 53.45 M209.65 55.95 L211.5 55.95 211.5 55.0 209.65 55.0 209.65 55.95 M203.9 51.95 L206.7 51.95 206.7 58.75 Q207.1 60.15 208.5 60.15 L218.1 60.15 218.1 62.05 207.7 62.05 Q207.2 62.05 206.3 61.5 205.3 62.15 203.8 62.15 L203.8 60.25 Q204.65 60.1 204.65 59.7 L204.65 54.0 203.9 54.0 203.9 51.95" fill="#00ffff" fill-rule="evenodd" stroke="none"/>
    <path d="M253.1 48.05 L255.4 48.05 255.8 49.8 Q255.9 50.3 256.3 50.3 L256.7 50.3 256.7 52.15 255.25 52.15 Q254.2 52.15 253.95 51.1 L253.1 48.05 M260.8 47.6 L263.2 47.6 263.2 48.3 267.2 48.3 267.2 50.15 261.45 50.15 259.8 52.45 264.25 52.45 Q264.75 52.45 264.75 51.7 L264.75 51.05 266.9 51.05 266.9 52.45 Q266.9 53.25 266.5 53.65 266.05 54.25 265.05 54.25 L257.45 54.25 257.45 52.65 Q257.45 52.25 257.7 52.0 L259.1 50.15 257.05 50.15 257.05 48.3 260.8 48.3 260.8 47.6 M275.55 48.0 L282.3 48.0 282.3 49.95 279.45 52.55 283.2 52.55 283.2 60.8 Q283.2 62.3 281.4 62.3 L280.3 62.3 280.3 60.3 280.8 60.3 281.2 60.05 281.2 54.35 276.8 54.35 276.8 52.55 279.7 49.8 275.55 49.8 275.55 48.0 M268.8 49.25 L271.2 49.25 271.2 47.8 272.95 47.8 272.95 49.25 275.25 49.25 275.25 58.7 Q275.25 60.05 274.0 60.05 L272.95 60.05 272.95 62.15 271.2 62.15 271.2 60.05 268.8 60.05 268.8 49.25 M279.0 55.25 L280.9 55.25 280.1 60.25 Q279.75 62.0 278.55 62.0 L277.65 62.0 277.65 60.15 277.95 60.15 278.4 59.3 279.0 55.25 M276.3 55.25 L278.2 55.25 277.45 60.25 Q277.15 62.0 276.0 62.0 L274.95 62.0 274.95 60.15 275.4 60.15 275.75 59.3 276.3 55.25 M272.95 50.85 L272.95 53.7 273.5 53.7 273.5 50.85 272.95 50.85 M273.2 58.45 L273.5 57.95 273.5 55.55 272.95 55.55 272.95 58.45 273.2 58.45 M270.55 53.7 L271.2 53.7 271.2 50.85 270.55 50.85 270.55 53.7 M271.2 58.45 L271.2 55.55 270.55 55.55 270.55 58.45 271.2 58.45 M264.05 55.0 L266.15 55.0 266.15 60.0 Q266.15 60.3 266.5 60.3 L267.2 60.3 267.2 62.15 265.25 62.15 Q264.05 62.15 264.05 61.05 L264.05 55.0 M261.0 55.25 L263.0 55.25 263.0 62.15 261.0 62.15 261.0 55.25 M253.05 52.55 L255.3 52.55 255.75 54.35 Q255.85 54.85 256.25 54.85 L256.7 54.85 256.7 56.7 255.2 56.7 Q254.15 56.7 253.9 55.7 L253.05 52.55 M258.05 55.0 L260.05 55.0 260.05 60.5 Q260.05 61.3 259.55 61.8 259.15 62.25 258.35 62.25 L257.05 62.25 257.05 60.5 257.7 60.5 Q258.05 60.5 258.05 59.7 L258.05 55.0 M254.35 57.45 L256.65 57.45 255.8 60.8 Q255.45 62.0 254.2 62.0 L253.0 62.0 253.0 60.15 253.45 60.15 253.85 59.75 254.35 57.45" fill="#00ffff" fill-rule="evenodd" stroke="none"/>
    <path d="M152.2 83.05 L152.2 84.95 139.8 84.95 139.8 83.05 152.2 83.05 M125.95 85.5 L134.25 85.5 134.25 84.5 125.95 84.5 125.95 85.5 M129.1 95.25 L130.7 95.25 130.7 89.95 129.1 89.95 129.1 95.25 M133.7 88.2 Q134.25 88.2 134.25 87.75 L134.25 87.15 125.95 87.15 125.95 88.2 133.7 88.2 M123.2 90.95 L125.2 90.95 125.6 92.3 125.8 92.55 126.3 92.55 126.3 94.3 125.05 94.3 Q124.25 94.3 123.95 93.5 L123.2 90.95 M123.5 82.95 L136.65 82.95 136.65 88.6 Q136.65 89.95 134.9 89.95 L132.8 89.95 132.8 95.25 137.0 95.25 137.0 97.15 122.95 97.15 122.95 95.25 127.0 95.25 127.0 89.95 123.5 89.95 123.5 82.95 M153.0 87.15 L153.0 89.15 147.4 89.15 147.4 95.15 Q147.4 96.05 146.8 96.65 146.3 97.15 145.45 97.15 L143.2 97.15 143.2 95.3 144.65 95.3 Q145.05 95.3 145.05 94.45 L145.05 89.15 139.0 89.15 139.0 87.15 153.0 87.15 M134.8 90.95 L136.8 90.95 136.15 93.45 Q135.9 94.3 134.95 94.3 L133.45 94.3 133.45 92.55 134.25 92.55 134.5 92.3 134.8 90.95 M141.1 90.25 L143.45 90.25 142.5 95.2 Q142.1 96.95 140.65 96.95 L138.9 96.95 138.9 95.0 139.9 95.0 Q140.2 95.0 140.4 94.2 L141.1 90.25 M148.5 90.1 L150.8 90.1 151.75 94.2 Q151.9 95.0 152.3 95.0 L153.1 95.0 153.1 96.95 151.45 96.95 Q150.15 96.95 149.7 95.3 L148.5 90.1" fill="#00ffff" fill-rule="evenodd" stroke="none"/>
    <path d="M195.25 82.55 L197.35 82.55 197.05 83.25 201.9 83.25 201.9 84.45 201.05 86.0 202.05 86.0 202.05 90.85 Q202.05 92.4 200.2 92.4 L193.75 92.4 193.75 90.7 199.5 90.7 Q199.95 90.7 199.95 90.3 L199.95 89.95 193.8 89.95 193.8 88.4 199.95 88.4 199.95 87.7 193.8 87.7 193.8 86.0 198.8 86.0 199.35 85.0 196.2 85.0 Q195.85 85.65 195.15 85.65 L193.9 85.65 193.9 83.95 194.3 83.95 194.75 83.65 195.25 82.55 M189.95 84.45 L189.95 88.4 190.95 88.4 191.3 88.05 191.3 84.45 189.95 84.45 M189.95 90.05 L189.95 94.45 191.05 94.45 191.3 94.0 191.3 90.4 Q191.3 90.05 190.8 90.05 L189.95 90.05 M189.95 96.2 L189.95 97.45 187.95 97.45 187.95 82.7 193.3 82.7 193.3 88.2 Q193.3 88.85 192.3 89.15 193.3 89.6 193.3 90.3 L193.3 95.05 Q193.3 96.15 192.0 96.2 L189.95 96.2 M199.9 92.8 L201.55 92.8 201.75 95.3 201.9 95.55 202.25 95.55 202.25 97.15 201.25 97.15 Q200.15 97.15 200.05 96.0 L199.9 92.8 M194.05 92.8 L195.75 92.8 195.65 95.25 Q195.55 96.35 195.25 96.75 195.0 97.15 194.45 97.15 L193.35 97.15 193.35 95.55 193.75 95.55 193.95 95.1 194.05 92.8 M198.05 92.85 L199.3 92.85 199.3 93.65 199.5 93.8 199.65 93.8 199.65 95.0 198.8 95.0 Q198.05 95.0 198.05 94.3 L198.05 92.85 M196.0 92.8 L197.7 92.8 197.7 95.3 Q197.7 95.7 198.05 95.7 L199.75 95.7 199.75 97.25 197.7 97.25 Q196.0 97.25 196.0 95.7 L196.0 92.8 M217.8 83.25 L217.8 84.85 216.05 84.85 216.05 85.25 213.8 85.25 213.8 84.85 207.55 84.85 207.55 85.25 205.3 85.25 205.3 84.85 203.95 84.85 203.95 83.25 205.3 83.25 205.3 82.8 207.55 82.8 207.55 83.25 213.8 83.25 213.8 82.8 216.05 82.8 216.05 83.25 217.8 83.25 M216.2 85.15 L217.95 85.15 217.95 85.75 Q217.95 87.3 216.25 87.3 L215.7 87.3 215.7 92.6 215.95 92.6 216.25 92.3 216.25 88.4 217.9 88.4 217.9 92.7 Q217.9 94.4 216.3 94.4 L215.7 94.4 215.7 94.95 Q215.7 95.35 216.1 95.35 L217.75 95.35 217.75 97.15 215.7 97.15 Q213.8 97.15 213.8 95.35 L213.8 87.3 208.5 87.3 208.5 95.25 Q208.5 97.15 206.65 97.15 L206.2 97.15 206.2 95.35 206.25 95.35 Q206.65 95.35 206.65 94.85 L206.65 92.7 206.05 92.7 206.05 96.05 Q206.05 97.0 205.05 97.0 L203.95 97.0 203.95 95.35 204.05 95.35 204.3 95.05 204.3 92.7 203.95 92.7 203.95 90.95 206.65 90.95 206.65 90.3 205.05 90.3 Q204.0 90.3 204.0 89.3 L204.0 85.75 205.8 85.75 205.8 88.3 Q205.8 88.6 206.1 88.6 L206.65 88.6 206.65 85.7 213.8 85.7 213.8 85.35 215.7 85.35 215.7 85.7 215.9 85.7 216.2 85.35 216.2 85.15 M210.5 90.5 L211.15 90.5 211.15 89.65 210.5 89.65 210.5 90.5 M210.5 93.0 L211.45 93.0 211.8 92.7 211.8 92.0 210.5 92.0 210.5 93.0 M211.05 95.35 L211.05 94.5 210.5 94.5 210.5 95.0 210.7 95.35 211.05 95.35 M213.45 88.05 L213.45 89.65 212.65 89.65 212.65 90.5 213.5 90.5 213.5 93.15 Q213.5 94.2 212.55 94.45 L212.55 95.35 213.45 95.35 213.45 96.95 210.05 96.95 Q208.9 96.95 208.9 95.8 L208.9 88.05 213.45 88.05" fill="#00ffff" fill-rule="evenodd" stroke="none"/>
    <path d="M145.1 117.7 L147.7 117.7 147.7 118.5 153.0 118.5 153.0 122.8 Q153.0 124.5 151.0 124.5 L141.65 124.5 141.65 130.05 Q141.65 132.15 139.5 132.15 L138.7 132.15 138.7 130.05 139.05 130.05 Q139.5 130.05 139.5 129.45 L139.5 118.5 145.1 118.5 145.1 117.7 M150.75 120.45 L141.65 120.45 141.65 122.55 150.25 122.55 Q150.75 122.55 150.75 122.15 L150.75 120.45 M132.05 123.45 L132.05 120.0 127.9 120.0 127.6 123.45 132.05 123.45 M136.75 118.15 L136.75 120.0 134.3 120.0 134.3 123.45 137.1 123.45 137.1 125.3 134.3 125.3 134.3 132.15 132.05 132.15 132.05 125.3 127.45 125.3 127.1 130.0 Q126.95 132.15 126.15 132.15 L123.65 132.15 123.65 130.25 124.65 130.25 Q125.0 130.25 125.0 128.75 L125.3 125.3 122.9 125.3 122.9 123.45 125.4 123.45 125.7 120.0 123.2 120.0 123.2 118.15 136.75 118.15 M142.45 125.85 L152.7 125.85 152.7 130.5 Q152.7 131.95 151.0 131.95 L142.45 131.95 142.45 125.85 M149.9 130.0 Q150.45 130.0 150.45 129.55 L150.45 127.8 144.65 127.8 144.65 130.0 149.9 130.0" fill="#00ffff" fill-rule="evenodd" stroke="none"/>
    <path d="M204.1 117.75 L206.4 117.75 206.55 118.25 Q206.65 118.7 207.05 118.7 L208.0 118.7 208.0 120.45 206.0 120.45 Q204.95 120.45 204.7 119.45 L204.1 117.75 M204.2 120.95 L206.3 120.95 206.3 132.15 204.2 132.15 204.2 120.95 M215.15 121.85 L215.15 123.8 213.75 123.8 213.75 130.55 Q213.75 131.6 212.5 131.6 L210.8 131.6 210.8 129.8 211.3 129.8 211.65 129.5 211.65 123.8 206.75 123.8 206.75 121.85 211.65 121.85 211.65 120.7 213.75 120.7 213.75 121.85 215.15 121.85 M208.55 118.0 L217.8 118.0 217.8 131.05 Q217.8 132.15 216.5 132.15 L214.45 132.15 214.45 130.25 215.3 130.25 Q215.65 130.25 215.65 129.85 L215.65 120.05 208.55 120.05 208.55 118.0 M210.65 124.45 L210.05 129.45 Q209.9 130.85 209.0 130.85 L206.95 130.85 206.95 129.05 207.75 129.05 Q208.05 129.05 208.15 128.4 L208.55 124.45 210.65 124.45 M189.45 117.8 L191.8 117.8 192.4 119.6 197.5 119.6 198.1 117.8 200.65 117.8 200.0 119.6 201.55 119.6 201.55 121.55 196.1 121.55 196.1 124.15 202.2 124.15 202.2 126.15 196.9 126.15 199.05 129.75 199.55 130.15 201.7 130.15 201.7 132.05 198.2 132.05 Q197.7 132.05 197.4 131.5 L194.95 127.4 192.6 131.35 Q192.15 132.05 191.55 132.05 L188.2 132.05 188.2 130.15 190.2 130.15 191.1 129.3 192.95 126.15 187.8 126.15 187.8 124.15 193.75 124.15 193.75 121.55 188.4 121.55 188.4 119.6 190.05 119.6 189.45 117.8" fill="#00ffff" fill-rule="evenodd" stroke="none"/>
    <path d="M143.2 153.95 L143.2 152.8 145.2 152.8 145.2 153.95 146.75 153.95 146.75 152.8 148.75 152.8 148.75 153.95 152.3 153.95 152.3 161.8 153.2 161.8 153.2 163.75 138.8 163.75 138.8 161.8 139.7 161.8 139.7 153.95 143.2 153.95 M145.2 155.8 L145.2 157.8 146.75 157.8 146.75 155.8 145.2 155.8 M141.75 157.8 L143.2 157.8 143.2 155.8 141.75 155.8 141.75 157.8 M141.75 161.8 L143.2 161.8 143.2 159.75 141.75 159.75 141.75 161.8 M145.2 161.8 L146.75 161.8 146.75 159.75 145.2 159.75 145.2 161.8 M148.75 155.8 L148.75 157.8 150.25 157.8 150.25 155.8 148.75 155.8 M148.75 161.8 L150.25 161.8 150.25 159.75 148.75 159.75 148.75 161.8 M147.8 164.25 L150.15 164.25 150.6 165.15 Q150.75 165.45 151.2 165.45 L152.7 165.45 152.7 167.15 150.0 167.15 Q149.35 167.15 148.95 166.4 L147.8 164.25 M141.55 164.25 L143.9 164.25 142.75 166.4 Q142.35 167.15 141.5 167.15 L139.25 167.15 139.25 165.45 140.65 165.45 141.05 165.15 141.55 164.25 M128.45 153.05 L136.75 153.05 136.75 154.8 134.3 156.85 135.45 157.95 135.9 158.2 137.1 158.2 137.1 159.95 134.45 159.95 Q134.05 159.95 133.75 159.5 L132.7 158.2 130.85 159.75 129.9 160.05 127.95 160.05 127.95 158.05 129.05 158.05 129.9 157.75 133.4 154.95 128.45 154.95 128.45 153.05 M125.05 152.8 L127.3 152.8 124.8 157.3 125.6 157.3 126.35 156.0 128.75 156.0 125.35 161.85 127.5 161.85 127.5 163.8 122.95 163.8 122.95 161.85 124.5 159.15 122.75 159.15 122.75 157.3 125.05 152.8 M136.8 160.7 L136.8 162.55 133.7 162.55 133.7 165.25 137.1 165.25 137.1 167.15 128.15 167.15 128.15 165.25 131.45 165.25 131.45 162.55 128.5 162.55 128.5 160.7 136.8 160.7 M127.75 164.85 L127.75 166.75 122.8 166.75 122.8 164.85 127.75 164.85" fill="#00ffff" fill-rule="evenodd" stroke="none"/>
    <path d="M193.55 153.15 L193.55 155.15 191.75 155.15 191.75 158.45 193.45 158.45 193.45 160.4 191.75 160.4 191.75 164.8 193.65 164.8 193.65 166.75 187.95 166.75 187.95 164.8 189.7 164.8 189.7 160.4 188.0 160.4 188.0 158.45 189.7 158.45 189.7 155.15 187.95 155.15 187.95 153.15 193.55 153.15 M197.25 155.7 L199.0 155.7 199.0 162.35 198.95 163.2 198.8 163.8 198.6 164.3 200.35 164.3 200.35 165.05 Q200.35 165.35 200.5 165.45 L200.9 165.55 201.95 165.55 202.0 167.25 200.3 167.25 199.6 167.15 199.0 166.9 198.65 166.5 Q198.5 166.2 198.5 165.8 L198.5 164.45 197.55 166.25 197.35 166.6 196.9 167.05 195.8 167.3 194.2 167.3 194.15 165.65 195.2 165.65 195.95 165.5 196.3 165.05 196.85 163.65 197.15 162.85 197.25 162.05 197.25 155.7 M194.25 152.8 L201.85 152.8 201.85 163.65 199.95 163.65 199.95 154.6 196.05 154.6 196.05 163.6 194.3 163.65 194.25 152.8 M214.0 153.45 L216.1 153.45 216.1 154.05 216.5 154.3 217.25 154.3 217.25 155.85 215.25 155.85 Q214.0 155.85 214.0 154.95 L214.0 153.45 M217.8 156.7 L217.8 158.8 213.7 159.3 214.3 164.55 Q214.4 165.15 214.8 165.15 L217.95 165.15 217.95 167.15 213.55 167.15 Q212.25 167.15 212.05 165.45 L211.4 159.6 207.9 160.05 207.9 157.95 211.2 157.5 210.7 152.95 212.95 152.95 213.45 157.2 217.8 156.7 M206.3 152.8 L208.75 152.8 207.15 156.7 207.15 167.15 204.9 167.15 204.9 157.75 203.8 157.75 203.8 155.65 204.8 155.65 205.3 155.15 206.3 152.8" fill="#00ffff" fill-rule="evenodd" stroke="none"/>
    <path d="M277.5 160.3 L279.55 160.3 280.0 160.95 280.8 159.45 277.5 159.45 277.5 160.3 M281.05 153.55 L277.5 153.55 277.5 157.7 283.0 157.7 283.0 159.5 281.25 162.75 282.1 164.05 282.55 164.4 283.0 164.4 283.0 166.0 281.45 166.0 280.75 165.55 280.2 164.7 279.75 165.45 Q279.45 166.0 278.8 166.0 L277.75 166.0 277.75 164.3 277.9 164.3 278.45 164.0 279.0 162.85 277.5 160.5 277.5 166.1 275.45 166.1 275.45 151.8 283.1 151.8 283.1 155.5 Q283.1 157.05 281.3 157.05 L278.7 157.05 278.7 155.35 280.65 155.35 Q281.05 155.35 281.05 154.95 L281.05 153.55 M271.3 156.0 L272.75 156.0 272.75 153.75 271.3 153.75 271.3 156.0 M264.75 155.5 L267.1 155.5 264.45 161.0 265.9 163.65 266.45 164.1 267.2 164.1 267.2 166.0 265.1 166.0 Q264.65 166.0 264.3 165.35 L263.3 163.4 262.45 165.15 Q262.05 166.0 261.55 166.0 L259.9 166.0 259.9 164.1 260.55 164.1 261.1 163.4 262.15 161.2 260.3 157.7 262.7 157.7 263.25 158.75 264.75 155.5 M271.3 160.2 L272.75 160.2 272.75 157.9 271.3 157.9 271.3 160.2 M260.75 151.75 L263.0 151.75 262.7 153.15 267.2 153.15 267.2 155.05 262.35 155.05 262.2 155.65 Q261.9 157.0 260.7 157.0 L259.45 157.0 259.45 155.2 259.95 155.2 260.3 154.6 260.75 151.75 M269.3 151.8 L274.75 151.8 274.75 165.05 Q274.75 166.1 273.55 166.1 L272.0 166.1 272.0 164.3 272.5 164.3 272.75 164.0 272.75 162.1 271.3 162.1 271.3 164.8 Q271.3 166.1 270.0 166.1 L268.8 166.1 268.8 164.3 268.95 164.3 269.3 163.95 269.3 151.8 M252.9 152.1 L259.1 152.1 259.1 158.3 Q259.1 159.65 257.9 159.65 L255.25 159.65 255.25 163.9 Q255.25 164.2 255.65 164.2 L259.4 164.2 259.4 166.1 254.45 166.1 Q253.1 166.1 253.1 164.9 L253.1 157.75 256.65 157.75 257.0 157.45 257.0 154.0 252.9 154.0 252.9 152.1 M298.75 158.95 L298.8 161.7 298.85 164.45 298.75 164.65 298.55 164.7 297.2 164.75 295.75 164.7 295.5 164.45 295.6 163.1 295.75 158.95 295.7 156.4 295.6 153.9 295.8 153.75 296.55 153.75 297.25 153.8 298.0 153.75 298.7 153.75 298.9 153.9 298.85 156.4 298.75 158.95 M294.05 160.85 Q294.05 162.85 293.55 163.6 292.7 164.9 289.2 164.9 L286.75 164.65 Q285.4 164.3 285.0 163.2 L284.8 161.25 284.85 160.3 284.85 159.35 284.75 156.65 284.7 153.95 284.85 153.75 286.3 153.8 287.75 153.8 287.9 154.0 287.85 157.1 287.8 160.15 Q287.8 161.4 288.05 161.85 288.4 162.4 289.5 162.4 291.1 162.4 291.1 160.85 L291.05 157.45 291.0 154.05 Q291.0 153.8 291.15 153.8 L292.55 153.8 293.95 153.75 Q294.2 153.75 294.2 153.95 L294.1 156.65 294.05 159.35 294.05 160.1 294.05 160.85" fill="#00ffff" fill-rule="evenodd" stroke="none"/>
    <path d="M132.05 193.45 L132.05 190.0 127.9 190.0 127.6 193.45 132.05 193.45 M136.75 188.15 L136.75 190.0 134.3 190.0 134.3 193.45 137.1 193.45 137.1 195.3 134.3 195.3 134.3 202.15 132.05 202.15 132.05 195.3 127.45 195.3 127.1 200.0 Q126.95 202.15 126.15 202.15 L123.65 202.15 123.65 200.25 124.65 200.25 Q125.0 200.25 125.0 198.75 L125.3 195.3 122.9 195.3 122.9 193.45 125.4 193.45 125.7 190.0 123.2 190.0 123.2 188.15 136.75 188.15 M150.75 190.45 L141.65 190.45 141.65 192.55 150.25 192.55 Q150.75 192.55 150.75 192.15 L150.75 190.45 M145.1 187.7 L147.7 187.7 147.7 188.5 153.0 188.5 153.0 192.8 Q153.0 194.5 151.0 194.5 L141.65 194.5 141.65 200.05 Q141.65 202.15 139.5 202.15 L138.7 202.15 138.7 200.05 139.05 200.05 Q139.5 200.05 139.5 199.45 L139.5 188.5 145.1 188.5 145.1 187.7 M149.9 200.0 Q150.45 200.0 150.45 199.55 L150.45 197.8 144.65 197.8 144.65 200.0 149.9 200.0 M142.45 195.85 L152.7 195.85 152.7 200.5 Q152.7 201.95 151.0 201.95 L142.45 201.95 142.45 195.85" fill="#00ffff" fill-rule="evenodd" stroke="none"/>
    <path d="M189.45 187.8 L191.8 187.8 192.4 189.6 197.5 189.6 198.1 187.8 200.65 187.8 200.0 189.6 201.55 189.6 201.55 191.55 196.1 191.55 196.1 194.15 202.2 194.15 202.2 196.15 196.9 196.15 199.05 199.75 199.55 200.15 201.7 200.15 201.7 202.05 198.2 202.05 Q197.7 202.05 197.4 201.5 L194.95 197.4 192.6 201.35 Q192.15 202.05 191.55 202.05 L188.2 202.05 188.2 200.15 190.2 200.15 191.1 199.3 192.95 196.15 187.8 196.15 187.8 194.15 193.75 194.15 193.75 191.55 188.4 191.55 188.4 189.6 190.05 189.6 189.45 187.8 M208.55 188.0 L217.8 188.0 217.8 201.05 Q217.8 202.15 216.5 202.15 L214.45 202.15 214.45 200.25 215.3 200.25 Q215.65 200.25 215.65 199.85 L215.65 190.05 208.55 190.05 208.55 188.0 M204.1 187.75 L206.4 187.75 206.55 188.25 Q206.65 188.7 207.05 188.7 L208.0 188.7 208.0 190.45 206.0 190.45 Q204.95 190.45 204.7 189.45 L204.1 187.75 M204.2 190.95 L206.3 190.95 206.3 202.15 204.2 202.15 204.2 190.95 M215.15 191.85 L215.15 193.8 213.75 193.8 213.75 200.55 Q213.75 201.6 212.5 201.6 L210.8 201.6 210.8 199.8 211.3 199.8 211.65 199.5 211.65 193.8 206.75 193.8 206.75 191.85 211.65 191.85 211.65 190.7 213.75 190.7 213.75 191.85 215.15 191.85 M210.65 194.45 L210.05 199.45 Q209.9 200.85 209.0 200.85 L206.95 200.85 206.95 199.05 207.75 199.05 Q208.05 199.05 208.15 198.4 L208.55 194.45 210.65 194.45" fill="#00ffff" fill-rule="evenodd" stroke="none"/>
    <path d="M145.1 222.7 L147.7 222.7 147.7 223.5 153.0 223.5 153.0 227.8 Q153.0 229.5 151.0 229.5 L141.65 229.5 141.65 235.05 Q141.65 237.15 139.5 237.15 L138.7 237.15 138.7 235.05 139.05 235.05 Q139.5 235.05 139.5 234.45 L139.5 223.5 145.1 223.5 145.1 222.7 M136.75 223.15 L136.75 225.0 134.3 225.0 134.3 228.45 137.1 228.45 137.1 230.3 134.3 230.3 134.3 237.15 132.05 237.15 132.05 230.3 127.45 230.3 127.1 235.0 Q126.95 237.15 126.15 237.15 L123.65 237.15 123.65 235.25 124.65 235.25 Q125.0 235.25 125.0 233.75 L125.3 230.3 122.9 230.3 122.9 228.45 125.4 228.45 125.7 225.0 123.2 225.0 123.2 223.15 136.75 223.15 M150.75 225.45 L141.65 225.45 141.65 227.55 150.25 227.55 Q150.75 227.55 150.75 227.15 L150.75 225.45 M132.05 228.45 L132.05 225.0 127.9 225.0 127.6 228.45 132.05 228.45 M149.9 235.0 Q150.45 235.0 150.45 234.55 L150.45 232.8 144.65 232.8 144.65 235.0 149.9 235.0 M142.45 230.85 L152.7 230.85 152.7 235.5 Q152.7 236.95 151.0 236.95 L142.45 236.95 142.45 230.85" fill="#00ffff" fill-rule="evenodd" stroke="none"/>
    <path d="M215.15 226.85 L215.15 228.8 213.75 228.8 213.75 235.55 Q213.75 236.6 212.5 236.6 L210.8 236.6 210.8 234.8 211.3 234.8 211.65 234.5 211.65 228.8 206.75 228.8 206.75 226.85 211.65 226.85 211.65 225.7 213.75 225.7 213.75 226.85 215.15 226.85 M208.55 223.0 L217.8 223.0 217.8 236.05 Q217.8 237.15 216.5 237.15 L214.45 237.15 214.45 235.25 215.3 235.25 Q215.65 235.25 215.65 234.85 L215.65 225.05 208.55 225.05 208.55 223.0 M204.1 222.75 L206.4 222.75 206.55 223.25 Q206.65 223.7 207.05 223.7 L208.0 223.7 208.0 225.45 206.0 225.45 Q204.95 225.45 204.7 224.45 L204.1 222.75 M204.2 225.95 L206.3 225.95 206.3 237.15 204.2 237.15 204.2 225.95 M210.65 229.45 L210.05 234.45 Q209.9 235.85 209.0 235.85 L206.95 235.85 206.95 234.05 207.75 234.05 Q208.05 234.05 208.15 233.4 L208.55 229.45 210.65 229.45 M189.45 222.8 L191.8 222.8 192.4 224.6 197.5 224.6 198.1 222.8 200.65 222.8 200.0 224.6 201.55 224.6 201.55 226.55 196.1 226.55 196.1 229.15 202.2 229.15 202.2 231.15 196.9 231.15 199.05 234.75 199.55 235.15 201.7 235.15 201.7 237.05 198.2 237.05 Q197.7 237.05 197.4 236.5 L194.95 232.4 192.6 236.35 Q192.15 237.05 191.55 237.05 L188.2 237.05 188.2 235.15 190.2 235.15 191.1 234.3 192.95 231.15 187.8 231.15 187.8 229.15 193.75 229.15 193.75 226.55 188.4 226.55 188.4 224.6 190.05 224.6 189.45 222.8" fill="#00ffff" fill-rule="evenodd" stroke="none"/>
  </g>
</svg>
